<?xml version="1.0" standalone="no"?>
<!DOCTYPE svg PUBLIC "-//W3C//DTD SVG 20010904//EN"
 "http://www.w3.org/TR/2001/REC-SVG-20010904/DTD/svg10.dtd">
<svg version="1.0" xmlns="http://www.w3.org/2000/svg"
 width="225.000000pt" height="225.000000pt" viewBox="0 0 225.000000 225.000000"
 preserveAspectRatio="xMidYMid meet" style="color:blue">

<g transform="translate(0.000000,225.000000) scale(0.100000,-0.100000)"
fill="rgb(0,0,255)" stroke="none">
<path d="M1065 1728 c-11 -6 -84 -76 -162 -154 -130 -129 -143 -145 -143 -177
0 -26 6 -40 22 -51 43 -31 66 -21 159 71 l89 87 0 -271 c0 -229 2 -274 15
-287 27 -26 56 -29 84 -8 l26 19 3 273 2 273 89 -86 c93 -92 116 -102 159 -71
15 10 22 25 22 47 0 29 -19 52 -158 190 -87 86 -165 157 -173 157 -8 0 -23 -6
-34 -12z"/>
<path d="M575 1035 c-24 -24 -25 -28 -25 -180 0 -152 1 -156 25 -180 l24 -25
496 0 496 0 24 25 c24 24 25 28 25 180 0 152 -1 156 -25 180 -31 32 -59 32
-90 0 -24 -23 -25 -31 -25 -135 l0 -110 -404 0 -404 0 -4 116 c-3 108 -5 117
-27 135 -31 26 -57 24 -86 -6z"/>
</g>
</svg>
