<svg width="32" height="26" viewBox="0 0 32 26" fill="none" xmlns="http://www.w3.org/2000/svg">
<path d="M30 0H2C1.46957 0 0.960859 0.210714 0.585786 0.585786C0.210714 0.960859 0 1.46957 0 2V24C0 24.5304 0.210714 25.0391 0.585786 25.4142C0.960859 25.7893 1.46957 26 2 26H30C30.5304 26 31.0391 25.7893 31.4142 25.4142C31.7893 25.0391 32 24.5304 32 24V2C32 1.46957 31.7893 0.960859 31.4142 0.585786C31.0391 0.210714 30.5304 0 30 0ZM20.56 20.94L13.46 10.36L7.12 19.64L2.62 15.64L4 14.05L6.7 16.44L13.46 6.56L20.65 17.27L27.65 8L29.35 9.28L20.56 20.94Z" fill="#0B5ED7"/>
</svg>
