<svg width="32" height="27" viewBox="0 0 32 27" fill="none" xmlns="http://www.w3.org/2000/svg">
<path d="M29.25 0H2.4375C1.79103 0 1.17105 0.256807 0.713927 0.713927C0.256807 1.17105 0 1.79103 0 2.4375V24.375C0 25.0215 0.256807 25.6415 0.713927 26.0986C1.17105 26.5557 1.79103 26.8125 2.4375 26.8125H29.25C29.8965 26.8125 30.5165 26.5557 30.9736 26.0986C31.4307 25.6415 31.6875 25.0215 31.6875 24.375V2.4375C31.6875 1.79103 31.4307 1.17105 30.9736 0.713927C30.5165 0.256807 29.8965 0 29.25 0ZM27.6748 6.95602L13.0498 21.581C12.9366 21.6943 12.8022 21.7842 12.6542 21.8456C12.5063 21.9069 12.3477 21.9385 12.1875 21.9385C12.0273 21.9385 11.8687 21.9069 11.7208 21.8456C11.5728 21.7842 11.4384 21.6943 11.3252 21.581L5.23148 15.4873C5.0028 15.2586 4.87432 14.9484 4.87432 14.625C4.87432 14.3016 5.0028 13.9914 5.23148 13.7627C5.46017 13.534 5.77034 13.4056 6.09375 13.4056C6.41716 13.4056 6.72733 13.534 6.95602 13.7627L12.1875 18.9957L25.9502 5.23148C26.1789 5.0028 26.4891 4.87432 26.8125 4.87432C27.1359 4.87432 27.4461 5.0028 27.6748 5.23148C27.9035 5.46017 28.0319 5.77034 28.0319 6.09375C28.0319 6.41716 27.9035 6.72733 27.6748 6.95602Z" fill="#0B5ED7"/>
</svg>
