<svg width="30" height="22" viewBox="0 0 30 22" fill="none" xmlns="http://www.w3.org/2000/svg">
<path d="M7.33333 21.3333C5.31111 21.3333 3.58356 20.6333 2.15067 19.2333C0.717778 17.8333 0.000888889 16.1222 0 14.1C0 12.3667 0.522222 10.8222 1.56667 9.46667C2.61111 8.11111 3.97778 7.24444 5.66667 6.86667C6.22222 4.82222 7.33333 3.16667 9 1.9C10.6667 0.633334 12.5556 0 14.6667 0C17.2667 0 19.4724 0.905778 21.284 2.71733C23.0956 4.52889 24.0009 6.73422 24 9.33333C25.5333 9.51111 26.8058 10.1724 27.8173 11.3173C28.8289 12.4622 29.3342 13.8009 29.3333 15.3333C29.3333 17 28.7502 18.4169 27.584 19.584C26.4178 20.7511 25.0009 21.3342 23.3333 21.3333H7.33333Z" fill="#0B5ED7"/>
</svg>
