<svg width="31" height="28" viewBox="0 0 31 28" fill="none" xmlns="http://www.w3.org/2000/svg">
<path d="M14.472 2.73824L8.1967 9.40882C7.94913 9.67132 7.9599 10.0779 8.22361 10.3301C9.8651 11.9 12.5292 11.9 14.1707 10.3301L15.8821 8.69338C16.1082 8.47721 16.3934 8.35882 16.684 8.33824C17.05 8.30735 17.4267 8.42574 17.7066 8.69338L27.2111 17.7059L31 14.8235V0L24.9722 3.29412L23.6913 2.47574C22.8414 1.93513 21.8434 1.64682 20.8227 1.64706H17.0339C16.9747 1.64706 16.9101 1.64706 16.8509 1.65221C15.9413 1.69853 15.0856 2.08971 14.472 2.73824ZM6.27535 7.75662L12.0233 1.64706H9.89201C8.51962 1.64706 7.20642 2.16691 6.23767 3.09338L0 9.88235V28L7.75 21L8.41736 21.5301C9.65521 22.5184 11.216 23.0588 12.8252 23.0588H13.6701L13.2934 22.6985C12.7875 22.2147 12.7875 21.4324 13.2934 20.9537C13.7993 20.475 14.6174 20.4699 15.1179 20.9537L17.3245 23.064H17.8089C18.8368 23.064 19.8432 22.8426 20.7582 22.4309L19.3212 21.0515C18.8153 20.5676 18.8153 19.7853 19.3212 19.3066C19.8271 18.8279 20.6451 18.8228 21.1457 19.3066L22.8679 20.9537L23.8097 20.0529C24.2887 19.5949 24.4286 18.9309 24.2187 18.3493L16.797 11.3081L15.9951 12.075C13.3418 14.6125 9.04705 14.6125 6.39375 12.075C5.1559 10.8912 5.10747 8.99191 6.27535 7.75147V7.75662Z" fill="#0B5ED7"/>
</svg>
