<svg width="23" height="23" viewBox="0 0 23 23" fill="none" xmlns="http://www.w3.org/2000/svg">
<path d="M10.5 22.454C9.1925 22.304 7.612 21.812 6.1665 21.274C4.4 20.6165 2.7195 19.8455 1.7565 19.3845C1.015 19.0295 0.47 18.3405 0.3515 17.493C0.1995 16.4065 0 14.384 0 11.25C0 8.779 0.124 6.999 0.251 5.824L0.901 6.132C1.802 6.5555 3.029 7.1215 4.33 7.6875C5.629 8.253 7.012 8.8235 8.2225 9.2535C8.8275 9.4685 9.3985 9.652 9.9005 9.7825C10.105 9.8355 10.3065 9.8825 10.5 9.9185V22.454ZM12 22.454C13.3075 22.304 14.888 21.812 16.3335 21.274C18.1 20.6165 19.7805 19.8455 20.7435 19.3845C21.485 19.0295 22.03 18.3405 22.1485 17.493C22.3005 16.4065 22.5 14.384 22.5 11.25C22.5 8.7795 22.376 6.999 22.249 5.824L21.599 6.132C20.4635 6.66678 19.3203 7.18533 18.17 7.6875C16.871 8.253 15.488 8.8235 14.278 9.2535C13.673 9.4685 13.1015 9.652 12.5995 9.7825C12.395 9.8355 12.1935 9.8825 12 9.919V22.454ZM1.7565 3.115C1.23181 3.36307 0.80882 3.78464 0.559 4.3085C2.00361 5.00248 3.46051 5.67059 4.929 6.3125C6.214 6.872 7.5615 7.4265 8.725 7.84C9.307 8.047 9.8335 8.215 10.278 8.331C10.7355 8.4495 11.058 8.5 11.25 8.5C11.4425 8.5 11.765 8.45 12.222 8.331C12.7464 8.18905 13.2647 8.02524 13.7755 7.84C14.939 7.4265 16.286 6.872 17.5715 6.3125C19.0402 5.67149 20.497 5.00337 21.941 4.3085C21.6911 3.78483 21.2681 3.36344 20.7435 3.1155C19.7805 2.6545 18.1 1.8835 16.3335 1.226C14.5985 0.58 12.6685 0 11.25 0C9.8315 0 7.902 0.58 6.1665 1.226C4.4 1.8835 2.7195 2.654 1.7565 3.115Z" fill="#0B5ED7"/>
</svg>
