<svg width="21" height="24" viewBox="0 0 21 24" fill="none" xmlns="http://www.w3.org/2000/svg">
<path d="M15.4737 1.91235C16.3194 1.9123 17.1333 2.24711 17.7486 2.84826C18.364 3.44941 18.7343 4.27146 18.7839 5.14622L18.7895 5.34777V16.7992H19.6184C20.3335 16.7992 20.9226 17.3626 20.9934 18.084L21 18.2306V20.2346C21 21.1108 20.6769 21.954 20.0967 22.5916C19.5165 23.2291 18.723 23.6129 17.8787 23.6643L17.6842 23.67H6.63158C5.78582 23.67 4.97201 23.3352 4.35666 22.7341C3.74131 22.1329 3.37093 21.3109 3.32132 20.4361L3.31579 20.2346V8.78318H1.38158C1.03955 8.78335 0.709614 8.65205 0.455627 8.41471C0.20164 8.17737 0.0416557 7.85085 0.00663163 7.49834L5.15102e-09 7.35176V5.34777C-4.71082e-05 4.4715 0.323096 3.62833 0.903313 2.99078C1.48353 2.35322 2.27696 1.96949 3.12126 1.91808L3.31579 1.91235H15.4737ZM18.7895 19.0894H8.8421V20.2346C8.8421 20.6354 8.77579 21.0213 8.65421 21.3797H17.6842C17.9773 21.3797 18.2585 21.2591 18.4657 21.0443C18.673 20.8295 18.7895 20.5383 18.7895 20.2346V19.0894ZM11.0526 12.2186H8.8421C8.5604 12.2189 8.28944 12.3307 8.08459 12.531C7.87975 12.7314 7.75648 13.0053 7.73997 13.2966C7.72346 13.588 7.81496 13.8749 7.99577 14.0987C8.17658 14.3225 8.43305 14.4664 8.71279 14.5009L8.8421 14.5089H11.0526C11.3343 14.5086 11.6053 14.3968 11.8101 14.1964C12.015 13.9961 12.1383 13.7222 12.1548 13.4308C12.1713 13.1395 12.0798 12.8526 11.899 12.6288C11.7182 12.4049 11.4617 12.2611 11.1819 12.2266L11.0526 12.2186ZM13.2632 7.63805H8.8421C8.54897 7.63805 8.26784 7.75869 8.06057 7.97345C7.85329 8.1882 7.73684 8.47947 7.73684 8.78318C7.73684 9.08689 7.85329 9.37816 8.06057 9.59292C8.26784 9.80767 8.54897 9.92832 8.8421 9.92832H13.2632C13.5563 9.92832 13.8374 9.80767 14.0447 9.59292C14.252 9.37816 14.3684 9.08689 14.3684 8.78318C14.3684 8.47947 14.252 8.1882 14.0447 7.97345C13.8374 7.75869 13.5563 7.63805 13.2632 7.63805ZM3.31579 4.20263C3.02266 4.20263 2.74153 4.32328 2.53425 4.53803C2.32697 4.75279 2.21053 5.04406 2.21053 5.34777V6.49291H3.31579V4.20263Z" fill="#0B5ED7"/>
</svg>
