<svg width="25" height="29" viewBox="0 0 25 29" fill="none" xmlns="http://www.w3.org/2000/svg">
<path d="M12.25 0.75C15.4445 0.75 18.4051 1.4979 20.8227 2.76825C22.0084 3.39195 22.6 3.7038 23.175 4.6839C23.75 5.664 23.75 6.6117 23.75 8.5098V13.22C23.75 20.892 17.9451 25.158 14.5845 26.9859L14.5769 26.99C13.6441 27.4962 13.1765 27.75 12.25 27.75C11.3236 27.75 10.856 27.4962 9.92315 26.99L9.91555 26.9859C6.55371 25.158 0.750046 20.8934 0.750046 13.2213V8.5098C0.750046 6.6117 0.751324 5.664 1.32505 4.6839C1.89877 3.7038 2.49166 3.39195 3.67743 2.76825C6.09627 1.4979 9.0556 0.75 12.25 0.75Z" stroke="#0B5ED7" stroke-width="1.5" stroke-linecap="round" stroke-linejoin="round"/>
<path d="M9.69449 11.5502V9.5252C9.69449 8.80911 9.96374 8.12235 10.443 7.61601C10.9223 7.10966 11.5723 6.8252 12.25 6.8252C12.9278 6.8252 13.5778 7.10966 14.0571 7.61601C14.5364 8.12235 14.8056 8.80911 14.8056 9.5252V11.5502M9.69449 11.5502H14.8056M9.69449 11.5502C9.18616 11.5502 8.69865 11.7635 8.3392 12.1433C7.97976 12.5231 7.77782 13.0381 7.77782 13.5752V15.6002C7.77782 16.1373 7.97976 16.6523 8.3392 17.0321C8.69865 17.4118 9.18616 17.6252 9.69449 17.6252H14.8056C15.3139 17.6252 15.8014 17.4118 16.1609 17.0321C16.5203 16.6523 16.7223 16.1373 16.7223 15.6002V13.5752C16.7223 13.0381 16.5203 12.5231 16.1609 12.1433C15.8014 11.7635 15.3139 11.5502 14.8056 11.5502" stroke="#0B5ED7" stroke-width="1.5" stroke-linecap="round" stroke-linejoin="round"/>
</svg>
