<svg width="32" height="23" viewBox="0 0 32 23" fill="none" xmlns="http://www.w3.org/2000/svg">
<path d="M5 0C3.67392 0 2.40215 0.504835 1.46447 1.40345C0.526784 2.30206 0 3.52084 0 4.79167V18.2083C0 19.4792 0.526784 20.6979 1.46447 21.5966C2.40215 22.4952 3.67392 23 5 23H27C28.3261 23 29.5979 22.4952 30.5355 21.5966C31.4732 20.6979 32 19.4792 32 18.2083V4.79167C32 3.52084 31.4732 2.30206 30.5355 1.40345C29.5979 0.504835 28.3261 0 27 0H5ZM2 4.79167C2 4.02917 2.31607 3.2979 2.87868 2.75873C3.44129 2.21957 4.20435 1.91667 5 1.91667H27C27.7956 1.91667 28.5587 2.21957 29.1213 2.75873C29.6839 3.2979 30 4.02917 30 4.79167V18.2083C30 18.9708 29.6839 19.7021 29.1213 20.2413C28.5587 20.7804 27.7956 21.0833 27 21.0833H5C4.20435 21.0833 3.44129 20.7804 2.87868 20.2413C2.31607 19.7021 2 18.9708 2 18.2083V4.79167ZM5 3.83333C4.73478 3.83333 4.48043 3.9343 4.29289 4.11402C4.10536 4.29375 4 4.5375 4 4.79167C4 5.04583 4.10536 5.28959 4.29289 5.46931C4.48043 5.64903 4.73478 5.75 5 5.75H15C15.2652 5.75 15.5196 5.64903 15.7071 5.46931C15.8946 5.28959 16 5.04583 16 4.79167C16 4.5375 15.8946 4.29375 15.7071 4.11402C15.5196 3.9343 15.2652 3.83333 15 3.83333H5ZM5 7.66667C4.73478 7.66667 4.48043 7.76763 4.29289 7.94736C4.10536 8.12708 4 8.37083 4 8.625C4 8.87917 4.10536 9.12292 4.29289 9.30264C4.48043 9.48237 4.73478 9.58333 5 9.58333H21C21.2652 9.58333 21.5196 9.48237 21.7071 9.30264C21.8946 9.12292 22 8.87917 22 8.625C22 8.37083 21.8946 8.12708 21.7071 7.94736C21.5196 7.76763 21.2652 7.66667 21 7.66667H5ZM6 13.4167C5.46957 13.4167 4.96086 13.6186 4.58579 13.978C4.21071 14.3375 4 14.825 4 15.3333V17.25C4 17.7583 4.21071 18.2458 4.58579 18.6053C4.96086 18.9647 5.46957 19.1667 6 19.1667H14C14.5304 19.1667 15.0391 18.9647 15.4142 18.6053C15.7893 18.2458 16 17.7583 16 17.25V15.3333C16 14.825 15.7893 14.3375 15.4142 13.978C15.0391 13.6186 14.5304 13.4167 14 13.4167H6Z" fill="#0B5ED7"/>
</svg>
