<svg width="27" height="27" viewBox="0 0 27 27" fill="none" xmlns="http://www.w3.org/2000/svg">
<g clip-path="url(#clip0_3436_9780)">
<path d="M13.5 5.0625C13.5 4.39768 13.6309 3.73938 13.8854 3.12517C14.1398 2.51095 14.5127 1.95287 14.9828 1.48277C15.4529 1.01268 16.011 0.639774 16.6252 0.38536C17.2394 0.130945 17.8977 0 18.5625 0C19.2273 0 19.8856 0.130945 20.4998 0.38536C21.114 0.639774 21.6721 1.01268 22.1422 1.48277C22.6123 1.95287 22.9852 2.51095 23.2396 3.12517C23.4941 3.73938 23.625 4.39768 23.625 5.0625C23.625 6.40516 23.0916 7.69283 22.1422 8.64223C21.1928 9.59163 19.9052 10.125 18.5625 10.125C17.2198 10.125 15.9322 9.59163 14.9828 8.64223C14.0334 7.69283 13.5 6.40516 13.5 5.0625ZM0 21.9375C0 20.5948 0.533369 19.3072 1.48277 18.3578C2.43217 17.4084 3.71984 16.875 5.0625 16.875H11.8125C13.1552 16.875 14.4428 17.4084 15.3922 18.3578C16.3416 19.3072 16.875 20.5948 16.875 21.9375V27H0V21.9375Z" fill="#0B5ED7"/>
<path d="M14.9732 11.8176C14.6252 13.1599 13.8722 14.3625 12.8166 15.2617C14.4149 15.5022 15.874 16.3082 16.9284 17.5333C17.9829 18.7584 18.5627 20.3211 18.5625 21.9375H27V16.875C27 15.5323 26.4666 14.2447 25.5172 13.2953C24.5678 12.3459 23.2802 11.8125 21.9375 11.8125H15.1875C15.1166 11.8125 15.0452 11.8142 14.9732 11.8176ZM8.4375 5.0625C7.09484 5.0625 5.80717 5.59587 4.85777 6.54527C3.90837 7.49467 3.375 8.78234 3.375 10.125C3.375 11.4677 3.90837 12.7553 4.85777 13.7047C5.80717 14.6541 7.09484 15.1875 8.4375 15.1875C9.78016 15.1875 11.0678 14.6541 12.0172 13.7047C12.9666 12.7553 13.5 11.4677 13.5 10.125C13.5 8.78234 12.9666 7.49467 12.0172 6.54527C11.0678 5.59587 9.78016 5.0625 8.4375 5.0625Z" fill="#0B5ED7"/>
</g>
<defs>
<clipPath id="clip0_3436_9780">
<rect width="27" height="27" fill="white"/>
</clipPath>
</defs>
</svg>
