<?xml version="1.0" standalone="no"?>
<!DOCTYPE svg PUBLIC "-//W3C//DTD SVG 20010904//EN"
 "http://www.w3.org/TR/2001/REC-SVG-20010904/DTD/svg10.dtd">
<svg version="1.0" xmlns="http://www.w3.org/2000/svg"
 width="512.000000pt" height="512.000000pt" viewBox="0 0 512.000000 512.000000"
 preserveAspectRatio="xMidYMid meet">

<g transform="translate(0.000000,512.000000) scale(0.100000,-0.100000)"
fill="#000000" stroke="none">
<path d="M2052 5109 c-121 -23 -248 -122 -296 -229 -35 -77 -46 -148 -46 -292
l0 -118 -710 -2 -710 -3 -27 -27 c-37 -37 -37 -89 0 -126 l27 -27 208 -5 207
-5 126 -1890 c70 -1039 131 -1922 136 -1962 27 -187 172 -352 358 -404 42 -12
246 -14 1235 -14 989 0 1193 2 1235 14 186 52 331 217 358 404 5 40 66 923
136 1962 l126 1890 207 5 208 5 27 27 c37 37 37 89 0 126 l-27 27 -764 3 -763
2 -6 158 c-7 174 -19 224 -70 304 -59 93 -147 154 -255 177 -63 13 -853 14
-920 0z m956 -211 c22 -15 54 -49 69 -75 27 -46 28 -54 31 -200 l4 -153 -606
0 -606 0 0 140 c0 95 4 151 13 173 22 52 68 98 122 123 l50 24 441 -2 440 -3
42 -27z m1217 -685 c-3 -38 -62 -903 -130 -1923 -96 -1430 -128 -1866 -140
-1902 -24 -67 -88 -135 -160 -169 l-60 -29 -1175 0 -1175 0 -60 29 c-72 34
-136 102 -160 169 -12 36 -44 472 -140 1902 -68 1020 -127 1885 -130 1923 l-6
67 1671 0 1671 0 -6 -67z"/>
<path d="M1680 3717 c-60 -30 -66 71 89 -1527 153 -1584 142 -1502 203 -1524
32 -11 73 -1 98 24 15 15 20 33 20 73 0 28 -63 695 -139 1482 l-139 1429 -31
28 c-34 30 -62 35 -101 15z"/>
<path d="M2514 3720 c-12 -5 -29 -19 -38 -32 -15 -20 -16 -159 -16 -1496 l0
-1474 29 -29 c37 -37 79 -38 120 -3 l31 26 0 1478 0 1479 -22 25 c-25 29 -72
40 -104 26z"/>
<path d="M3340 3703 l-32 -29 -139 -1429 c-76 -787 -139 -1454 -139 -1482 0
-40 5 -58 20 -73 25 -25 66 -35 98 -24 61 22 50 -59 202 1509 77 798 140 1460
140 1472 0 34 -40 73 -81 79 -30 5 -42 1 -69 -23z"/>
</g>
</svg>
