<?xml version="1.0" standalone="no"?>
<!DOCTYPE svg PUBLIC "-//W3C//DTD SVG 20010904//EN"
 "http://www.w3.org/TR/2001/REC-SVG-20010904/DTD/svg10.dtd">
<svg version="1.0" xmlns="http://www.w3.org/2000/svg"
 width="512.000000pt" height="512.000000pt" viewBox="0 0 512.000000 512.000000"
 preserveAspectRatio="xMidYMid meet">

<g transform="translate(0.000000,512.000000) scale(0.100000,-0.100000)"
fill="#0d6efd" stroke="none">
<path d="M215 4596 c-100 -25 -182 -104 -205 -197 -7 -31 -10 -581 -8 -1859
l3 -1815 27 -51 c31 -59 84 -108 147 -138 l46 -21 2345 0 2345 0 49 25 c61 31
110 88 136 157 20 53 20 76 20 1586 0 1012 -4 1544 -10 1569 -18 63 -70 129
-130 162 l-55 31 -1150 5 -1150 5 -80 32 c-64 26 -128 69 -315 208 -283 212
-320 235 -441 277 l-94 33 -715 2 c-545 1 -727 -1 -765 -11z m1482 -190 c99
-26 162 -65 399 -243 278 -209 298 -221 424 -265 l95 -33 1135 -3 1134 -3 23
-21 23 -21 0 -1532 0 -1532 -25 -27 -24 -26 -2306 0 c-1679 0 -2312 3 -2328
11 -12 6 -30 21 -39 33 -17 20 -18 131 -18 1823 l0 1801 31 26 31 26 696 0
c559 0 707 -3 749 -14z"/>
<path d="M3576 2064 c-37 -37 -35 -86 3 -125 l29 -29 452 0 452 0 29 29 c37
37 38 79 3 120 l-26 31 -458 0 -457 0 -27 -26z"/>
<path d="M3127 1709 c-9 -5 -24 -24 -33 -40 -20 -39 -11 -82 23 -109 25 -20
39 -20 713 -20 l688 0 26 31 c35 41 34 83 -3 120 l-29 29 -684 0 c-445 -1
-689 -4 -701 -11z"/>
<path d="M3128 1335 c-32 -18 -52 -72 -39 -106 5 -13 19 -33 31 -44 22 -20 38
-20 681 -23 444 -2 673 1 699 8 68 18 91 94 46 147 l-24 28 -684 2 c-583 2
-687 0 -710 -12z"/>
</g>
</svg>
