<?xml version="1.0" standalone="no"?>
<!DOCTYPE svg PUBLIC "-//W3C//DTD SVG 20010904//EN"
 "http://www.w3.org/TR/2001/REC-SVG-20010904/DTD/svg10.dtd">
<svg version="1.0" xmlns="http://www.w3.org/2000/svg"
 width="512.000000pt" height="512.000000pt" viewBox="0 0 512.000000 512.000000"
 preserveAspectRatio="xMidYMid meet">

<g transform="translate(0.000000,512.000000) scale(0.100000,-0.100000)"
fill="#fe3232" stroke="none">
<path d="M822 5109 c-119 -23 -227 -106 -283 -215 l-34 -68 -3 -2240 c-2
-2057 -1 -2244 14 -2291 49 -148 170 -256 319 -285 43 -8 363 -10 1142 -8
l1083 3 26 27 c40 39 38 102 -5 140 l-31 28 -1081 0 c-782 0 -1092 3 -1120 11
-52 16 -108 64 -130 113 -18 39 -19 123 -19 2241 l0 2201 23 44 c15 31 37 54
71 75 l49 30 1108 5 1109 5 26 27 c37 37 37 99 0 136 l-26 27 -1098 1 c-603 1
-1116 -2 -1140 -7z"/>
<path d="M3571 3706 c-50 -28 -64 -90 -32 -141 10 -16 184 -214 386 -440 l368
-410 -1161 -5 -1162 -5 -26 -27 c-37 -37 -37 -99 0 -136 l26 -27 1157 -3 1156
-2 -367 -361 c-202 -199 -373 -374 -381 -390 -22 -42 -18 -75 14 -111 25 -28
36 -33 71 -32 42 2 45 4 521 480 429 429 479 483 479 511 0 17 -3 39 -7 49 -9
25 -910 1025 -942 1046 -31 21 -67 22 -100 4z"/>
</g>
</svg>
