<?xml version="1.0" standalone="no"?>
<!DOCTYPE svg PUBLIC "-//W3C//DTD SVG 20010904//EN"
 "http://www.w3.org/TR/2001/REC-SVG-20010904/DTD/svg10.dtd">
<svg version="1.0" xmlns="http://www.w3.org/2000/svg"
 width="512.000000pt" height="512.000000pt" viewBox="0 0 512.000000 512.000000"
 preserveAspectRatio="xMidYMid meet">

<g transform="translate(0.000000,512.000000) scale(0.100000,-0.100000)"
fill="#000000" stroke="none">
<path d="M350 4987 c-170 -58 -309 -211 -340 -376 -6 -35 -10 -754 -10 -2050
0 -2208 -4 -2063 65 -2186 65 -117 193 -218 319 -251 42 -11 397 -14 2082 -14
2236 0 2075 -4 2189 60 103 59 195 176 232 298 17 54 18 159 18 1809 l0 1753
-26 26 c-39 38 -99 39 -136 1 l-28 -27 -5 -1748 -5 -1747 -21 -46 c-31 -66
-91 -128 -149 -155 l-50 -24 -2020 0 -2020 0 -60 29 c-72 34 -135 99 -161 167
-18 48 -19 106 -19 2064 l0 2015 24 52 c26 58 77 110 143 145 l43 23 2015 5
c1652 4 2019 7 2038 18 36 21 56 76 42 117 -23 71 160 65 -2077 64 l-2018 0
-65 -22z"/>
<path d="M4975 4809 c-11 -6 -615 -606 -1342 -1332 l-1322 -1321 -43 39 c-24
22 -276 253 -561 515 -285 261 -534 483 -552 493 -29 16 -40 17 -70 7 -60 -20
-88 -84 -58 -136 10 -17 294 -284 631 -593 l613 -561 47 0 47 0 1348 1348
c742 741 1362 1365 1378 1386 16 21 29 49 29 62 0 75 -81 127 -145 93z"/>
</g>
</svg>
