<?xml version="1.0" standalone="no"?>
<!DOCTYPE svg PUBLIC "-//W3C//DTD SVG 20010904//EN"
 "http://www.w3.org/TR/2001/REC-SVG-20010904/DTD/svg10.dtd">
<svg version="1.0" xmlns="http://www.w3.org/2000/svg"
 width="512.000000pt" height="512.000000pt" viewBox="0 0 512.000000 512.000000"
 preserveAspectRatio="xMidYMid meet">

<g transform="translate(0.000000,512.000000) scale(0.100000,-0.100000)"
fill="#000000" stroke="none">
<path d="M3515 5110 c-215 -31 -397 -107 -584 -246 -47 -35 -599 -580 -1457
-1438 -1201 -1200 -1383 -1386 -1388 -1416 -3 -19 -24 -457 -46 -972 -39 -879
-40 -939 -25 -972 10 -20 30 -41 51 -51 32 -15 98 -13 986 26 733 31 960 44
983 55 17 8 652 636 1411 1397 1020 1022 1394 1403 1436 1462 110 156 178 308
214 475 25 116 25 352 0 470 -120 566 -631 1076 -1197 1195 -89 19 -301 27
-384 15z m377 -249 c455 -119 844 -509 970 -969 31 -113 31 -354 0 -467 -34
-122 -100 -252 -182 -355 l-19 -25 -806 805 c-443 443 -805 807 -805 810 0 11
104 83 174 121 89 48 138 66 246 90 111 25 308 20 422 -10z m-197 -1171 l810
-810 -83 -82 -82 -83 -812 812 -813 813 80 80 c44 44 82 80 85 80 3 0 370
-364 815 -810z m-1769 -789 l-954 -954 -271 54 -271 54 1062 1062 1063 1063
162 -162 163 -163 -954 -954z m1444 464 l325 -325 -956 -956 -955 -955 -295
33 -294 33 -33 294 -33 295 953 953 c524 524 955 953 958 953 3 0 151 -146
330 -325z m-252 -1872 l-1063 -1063 -54 271 -54 271 954 954 954 954 162 -162
163 -163 -1062 -1062z m-2503 291 c154 -31 282 -58 284 -60 3 -2 22 -152 42
-333 24 -208 43 -340 53 -359 8 -16 29 -35 46 -42 17 -7 178 -29 358 -49 l327
-36 57 -280 c31 -154 57 -289 58 -300 0 -20 -12 -21 -653 -48 -358 -15 -657
-28 -663 -27 -7 0 -15 21 -19 47 -18 119 -107 203 -215 203 -31 0 -40 4 -40
18 -1 9 12 311 27 670 24 566 29 652 43 652 8 0 141 -25 295 -56z"/>
</g>
</svg>
