<?xml version="1.0" standalone="no"?>
<!DOCTYPE svg PUBLIC "-//W3C//DTD SVG 20010904//EN"
 "http://www.w3.org/TR/2001/REC-SVG-20010904/DTD/svg10.dtd">
<svg version="1.0" xmlns="http://www.w3.org/2000/svg"
 width="512.000000pt" height="512.000000pt" viewBox="0 0 512.000000 512.000000"
 preserveAspectRatio="xMidYMid meet">

<g transform="translate(0.000000,512.000000) scale(0.100000,-0.100000)"
fill="#000000" stroke="none">
<path d="M2330 5110 c-494 -48 -950 -230 -1350 -538 -195 -150 -448 -432 -594
-662 -63 -99 -186 -351 -230 -471 -49 -134 -102 -340 -128 -499 -31 -195 -31
-565 0 -760 45 -276 116 -498 237 -745 132 -269 269 -460 489 -681 221 -220
412 -357 681 -489 247 -121 469 -192 745 -237 195 -31 565 -31 760 0 276 45
498 116 745 237 269 132 460 269 681 489 220 221 357 412 489 681 88 179 132
296 180 476 63 240 78 371 78 649 0 278 -15 409 -78 649 -48 180 -92 297 -180
476 -132 269 -269 460 -489 681 -221 220 -412 357 -681 489 -246 121 -474 193
-740 235 -147 23 -475 34 -615 20z m580 -205 c334 -52 673 -182 945 -364 158
-105 238 -169 369 -299 310 -306 524 -677 631 -1096 56 -218 69 -332 69 -586
0 -254 -13 -368 -69 -586 -84 -328 -242 -642 -458 -909 -78 -97 -256 -274
-352 -351 -188 -150 -448 -298 -669 -379 -127 -47 -331 -99 -476 -122 -161
-24 -519 -24 -680 0 -345 54 -680 182 -955 366 -158 105 -238 169 -369 299
-310 306 -524 677 -631 1096 -56 218 -69 332 -69 586 0 254 13 368 69 586 84
328 242 642 458 909 78 97 256 274 352 351 358 285 801 467 1250 514 126 12
460 4 585 -15z"/>
<path d="M2498 3880 c-153 -26 -274 -144 -307 -298 -7 -32 -11 -168 -11 -347
l0 -295 -295 0 c-179 0 -315 -4 -347 -11 -243 -52 -369 -306 -264 -534 46
-100 148 -179 264 -204 32 -7 168 -11 347 -11 l295 0 0 -295 c0 -179 4 -315
11 -347 52 -243 306 -369 534 -264 100 46 179 148 204 264 7 32 11 168 11 347
l0 295 295 0 c179 0 315 4 347 11 116 25 218 104 264 204 105 228 -21 482
-264 534 -32 7 -168 11 -347 11 l-295 0 0 295 c0 361 -9 412 -91 516 -75 95
-224 150 -351 129z m114 -190 c50 -14 97 -55 119 -105 17 -36 19 -72 19 -397
0 -255 3 -365 12 -383 24 -53 37 -55 425 -55 398 0 409 -2 466 -69 25 -30 47
-87 47 -121 0 -34 -22 -91 -47 -121 -57 -67 -68 -69 -466 -69 -388 0 -401 -2
-425 -55 -9 -18 -12 -128 -12 -383 0 -397 -2 -408 -69 -465 -30 -25 -87 -47
-121 -47 -34 0 -91 22 -121 47 -67 57 -69 68 -69 465 0 255 -3 365 -12 383
-24 53 -37 55 -425 55 -398 0 -409 2 -466 69 -25 30 -47 87 -47 121 0 34 22
91 47 121 57 67 68 69 466 69 388 0 401 2 425 55 9 18 12 128 12 383 0 326 2
361 19 397 23 50 58 83 108 100 47 17 67 18 115 5z"/>
</g>
</svg>
