<?xml version="1.0" standalone="no"?>
<!DOCTYPE svg PUBLIC "-//W3C//DTD SVG 20010904//EN"
 "http://www.w3.org/TR/2001/REC-SVG-20010904/DTD/svg10.dtd">
<svg version="1.0" xmlns="http://www.w3.org/2000/svg"
 width="512.000000pt" height="512.000000pt" viewBox="0 0 512.000000 512.000000"
 preserveAspectRatio="xMidYMid meet">

<g transform="translate(0.000000,512.000000) scale(0.100000,-0.100000)"
fill="#000000" stroke="none">
<path d="M2330 5110 c-494 -48 -950 -230 -1350 -538 -195 -150 -448 -432 -594
-662 -63 -99 -186 -351 -230 -471 -49 -134 -102 -340 -128 -499 -31 -195 -31
-565 0 -760 45 -276 116 -498 237 -745 132 -269 269 -460 489 -681 221 -220
412 -357 681 -489 247 -121 469 -192 745 -237 195 -31 565 -31 760 0 276 45
498 116 745 237 269 132 460 269 681 489 220 221 357 412 489 681 88 179 132
296 180 476 63 240 78 371 78 649 0 278 -15 409 -78 649 -48 180 -92 297 -180
476 -132 269 -269 460 -489 681 -221 220 -412 357 -681 489 -246 121 -474 193
-740 235 -147 23 -475 34 -615 20z m615 -219 c925 -160 1667 -838 1900 -1735
59 -227 70 -322 70 -596 0 -274 -11 -369 -70 -596 -213 -821 -868 -1476 -1689
-1689 -227 -59 -322 -70 -596 -70 -274 0 -369 11 -596 70 -821 213 -1476 868
-1689 1689 -59 227 -70 322 -70 596 0 274 11 369 70 596 213 821 868 1476
1689 1689 113 29 241 53 376 69 19 2 136 3 260 1 172 -2 253 -8 345 -24z"/>
<path d="M2475 4115 c-99 -53 -138 -169 -89 -266 28 -55 113 -109 174 -109 37
0 93 24 126 52 47 42 67 83 68 143 0 63 -26 119 -77 159 -32 26 -48 31 -105
34 -48 2 -76 -2 -97 -13z"/>
<path d="M2493 3032 c-12 -9 -27 -30 -32 -45 -8 -19 -11 -337 -11 -973 0
-1016 -1 -986 49 -1014 26 -13 77 -13 103 1 49 26 48 13 48 1017 0 644 -3 949
-11 970 -20 58 -98 82 -146 44z"/>
</g>
</svg>
