<?xml version="1.0" standalone="no"?>
<!DOCTYPE svg PUBLIC "-//W3C//DTD SVG 20010904//EN"
 "http://www.w3.org/TR/2001/REC-SVG-20010904/DTD/svg10.dtd">
<svg version="1.0" xmlns="http://www.w3.org/2000/svg"
 width="512.000000pt" height="512.000000pt" viewBox="0 0 512.000000 512.000000"
 preserveAspectRatio="xMidYMid meet">

<g transform="translate(0.000000,512.000000) scale(0.100000,-0.100000)"
fill="#000000" stroke="none">
<path d="M2520 3879 c-27 -11 -2444 -2419 -2491 -2483 -36 -48 -37 -85 -4
-124 30 -35 74 -48 107 -32 13 7 564 553 1226 1214 l1202 1201 1203 -1201
c661 -661 1212 -1207 1225 -1214 33 -16 77 -3 107 32 33 39 32 76 -4 124 -52
70 -2465 2473 -2494 2484 -34 12 -44 12 -77 -1z"/>
</g>
</svg>
