<?xml version="1.0" standalone="no"?>
<!DOCTYPE svg PUBLIC "-//W3C//DTD SVG 20010904//EN"
 "http://www.w3.org/TR/2001/REC-SVG-20010904/DTD/svg10.dtd">
<svg version="1.0" xmlns="http://www.w3.org/2000/svg"
 width="512.000000pt" height="512.000000pt" viewBox="0 0 512.000000 512.000000"
 preserveAspectRatio="xMidYMid meet">

<g transform="translate(0.000000,512.000000) scale(0.100000,-0.100000)"
fill="#000000" stroke="none">
<path d="M61 3878 c-13 -7 -33 -25 -44 -40 -45 -60 -106 6 1248 -1348 1252
-1252 1255 -1255 1295 -1255 40 0 43 3 1295 1255 1390 1390 1300 1291 1237
1361 -25 28 -37 34 -71 34 l-41 0 -1210 -1210 -1210 -1210 -1207 1207 c-946
945 -1215 1209 -1238 1213 -16 3 -41 0 -54 -7z"/>
</g>
</svg>
